<svg width="111" height="109" viewBox="0 0 111 109" fill="none" xmlns="http://www.w3.org/2000/svg">
<rect width="111" height="109" rx="12" fill="black"/>
<path d="M74.006 58.493C74.3591 59.9308 74.4635 61.5199 74.319 63.2602C74.1639 64.9619 73.7036 66.6852 72.9381 68.4301C72.1621 70.1363 71.0245 71.7344 69.5254 73.2244C68.0649 74.7037 66.2251 75.9346 64.006 76.917C63.6694 77.0509 63.2999 77.4427 62.8976 78.0924C62.4952 78.742 62.3787 79.3755 62.5481 79.9926C62.6683 80.5818 62.6199 81.0099 62.4028 81.2769C62.2349 81.5719 62.0178 81.8388 61.7516 82.0778C61.5134 82.2677 61.1382 82.4121 60.6262 82.5112C60.1633 82.6382 59.7038 82.7021 59.2477 82.7029C58.8197 82.6545 58.4491 82.3621 58.136 81.8259C57.8334 81.3282 57.6258 80.9497 57.5131 80.6902C57.4284 80.3816 57.1051 80.0349 56.5432 79.6499C56.0198 79.2543 55.2933 79.1011 54.3638 79.1903C52.4941 79.3302 50.6786 79.2893 48.9171 79.0677C47.1556 78.846 45.52 78.4031 44.0104 77.739C43.5785 77.5257 43.02 77.0776 42.3348 76.3946C41.6881 75.701 41.1307 74.8793 40.6626 73.9293C40.2224 72.9302 40.0383 71.8815 40.1102 70.7833C40.2206 69.6745 40.7977 68.6036 41.8415 67.5704C42.9132 66.4882 44.6483 65.5556 47.0467 64.7729C46.9438 66.2114 48.0347 67.2393 50.3196 67.8566C50.9935 68.0449 51.5899 68.0264 52.1087 67.801C52.6556 67.5265 52.9865 67.1453 53.1014 66.6575C53.227 66.2082 53.2663 65.596 53.2195 64.8207C53.162 64.0069 53.0168 63.1757 52.7839 62.3271C52.5789 61.4293 52.3146 60.693 51.9909 60.1182C51.727 59.6099 51.2036 59.2143 50.4208 58.9314C49.666 58.5994 48.9974 58.4303 48.415 58.4243C43.9769 58.2736 40.562 57.4688 38.1705 56.0098C35.8176 54.5402 34.2763 52.7026 33.5465 50.4971C32.7425 48.0216 32.6405 45.6853 33.2403 43.4882C33.8296 41.2525 34.9138 39.2335 36.4931 37.4311C38.1109 35.6183 40.0521 34.1522 42.3166 33.0328C42.5269 32.8922 42.8158 32.5847 43.1834 32.1105C43.5896 31.6257 43.7692 30.9957 43.7223 30.2204C43.683 29.775 43.6456 29.4119 43.61 29.1313C43.5639 28.8121 43.472 28.4018 43.3344 27.9004C43.2603 27.6304 43.486 27.3195 44.0117 26.9678C44.3657 26.7462 44.7741 26.5719 45.237 26.4449C45.7384 26.3072 46.1926 26.224 46.5995 26.1953C47.1925 26.2399 47.5313 26.4166 47.616 26.7251C47.7854 27.3423 47.9159 27.742 48.0074 27.9243C48.0883 28.068 48.2449 28.3362 48.4771 28.7287C48.6601 29.0933 49.008 29.454 49.5208 29.811C50.023 30.1295 50.5161 30.2637 51.0002 30.2138C52.9855 30.0422 54.8994 30.139 56.7419 30.5044C58.6228 30.8592 60.2622 31.4669 61.6599 32.3277C63.0855 33.1393 64.0888 34.1497 64.6696 35.3591C64.9547 35.9446 64.8715 36.5481 64.42 37.1698C63.9964 37.7423 63.3641 38.3099 62.5231 38.8726C61.7206 39.4247 60.8776 39.905 59.9942 40.3134C59.1108 40.7218 58.3412 41.016 57.6855 41.196C57.0683 41.3654 56.7193 41.3782 56.6383 41.2345C56.4447 40.8314 56.0968 40.4706 55.5946 40.1522C55.0924 39.8337 54.4957 39.6242 53.8044 39.5236C53.4149 39.4646 53.0152 39.5951 52.6052 39.915C52.2339 40.2243 52.0769 40.7859 52.1344 41.5997C52.1487 41.8032 52.2073 42.2434 52.3102 42.9203C52.4024 43.5586 52.5351 44.2688 52.7083 45.0509C52.9201 45.8223 53.1738 46.5201 53.4695 47.1441C53.8038 47.7575 54.3098 48.2408 54.9874 48.594C55.6651 48.9472 56.2127 49.1287 56.6302 49.1386C59.6086 49.1092 62.277 49.31 64.6352 49.7412C66.9935 50.1724 68.9788 51.0585 70.5913 52.3995C72.1932 53.702 73.3314 55.7331 74.006 58.493ZM43.9783 45.2072C44.0426 45.8947 44.1715 46.44 44.3652 46.8432C44.5868 47.1971 45.1873 47.5715 46.1667 47.9664C46.5003 48.1237 46.9125 48.1143 47.4033 47.938C47.9328 47.7512 48.1952 47.3474 48.1907 46.7264C48.14 45.7863 47.9544 44.8832 47.6337 44.0172C47.3516 43.1406 47.0752 42.5113 46.8045 42.1294C46.4634 41.6423 46.0387 41.5307 45.5304 41.7947C45.0607 42.048 44.6686 42.5083 44.3539 43.1753C44.0287 43.8038 43.9035 44.4811 43.9783 45.2072ZM63.2667 62.4363C63.2652 61.5241 62.9623 60.7984 62.358 60.2591C61.7537 59.7198 61.09 59.342 60.367 59.1257C59.6439 58.9094 59.0982 58.8103 58.7299 58.8284C58.1967 58.8503 57.8094 59.1018 57.5682 59.5828C57.3654 60.0533 57.2452 60.5218 57.2073 60.9885C57.1869 61.3674 57.2898 62.0443 57.5159 63.0192C57.77 63.945 58.1398 64.839 58.6253 65.7012C58.8787 66.1709 59.351 66.4561 60.0423 66.5567C60.7616 66.6081 61.2876 66.4845 61.6204 66.1857C62.1529 65.7077 62.5783 65.2177 62.8968 64.7155C63.2046 64.1747 63.3279 63.415 63.2667 62.4363Z" fill="white"/>
<path d="M80.5306 69.18C80.0106 69.18 79.5706 69 79.2106 68.64C78.8506 68.28 78.6706 67.84 78.6706 67.32C78.6706 66.8 78.8506 66.36 79.2106 66C79.5706 65.64 80.0106 65.46 80.5306 65.46C81.0306 65.46 81.4506 65.64 81.7906 66C82.1506 66.36 82.3306 66.8 82.3306 67.32C82.3306 67.84 82.1506 68.28 81.7906 68.64C81.4506 69 81.0306 69.18 80.5306 69.18Z" fill="#FF702C"/>
</svg>
