<svg width="364" height="64" viewBox="0 0 364 64" fill="none" xmlns="http://www.w3.org/2000/svg">
<g filter="url(#filter0_d_374_3129)">
<rect x="4" width="360" height="60" rx="26" fill="#FFE5A1" fill-opacity="0.48" shape-rendering="crispEdges"/>
<rect x="4.5" y="0.5" width="359" height="59" rx="25.5" stroke="#1D1D1D" shape-rendering="crispEdges"/>
<path d="M100.344 29.246C100.104 29.246 99.8995 29.162 99.7315 28.994C99.5635 28.814 99.4795 28.604 99.4795 28.364C99.4795 28.124 99.5635 27.92 99.7315 27.752C99.8995 27.584 100.104 27.5 100.344 27.5H101.298C101.406 27.5 101.46 27.446 101.46 27.338V26.906C101.46 25.61 101.742 24.668 102.306 24.08C102.87 23.48 103.764 23.18 104.988 23.18C105.396 23.18 105.75 23.204 106.05 23.252C106.302 23.288 106.506 23.414 106.662 23.63C106.83 23.834 106.914 24.068 106.914 24.332C106.914 24.548 106.824 24.722 106.644 24.854C106.464 24.974 106.266 25.016 106.05 24.98C105.81 24.956 105.636 24.944 105.528 24.944C104.916 24.944 104.496 25.076 104.268 25.34C104.052 25.592 103.944 26.09 103.944 26.834V27.338C103.944 27.446 103.998 27.5 104.106 27.5H105.87C106.11 27.5 106.314 27.584 106.482 27.752C106.65 27.92 106.734 28.124 106.734 28.364C106.734 28.604 106.65 28.814 106.482 28.994C106.314 29.162 106.11 29.246 105.87 29.246H104.106C103.998 29.246 103.944 29.294 103.944 29.39V35.474C103.944 35.75 103.842 35.99 103.638 36.194C103.434 36.398 103.194 36.5 102.918 36.5H102.468C102.192 36.5 101.952 36.398 101.748 36.194C101.556 35.99 101.46 35.75 101.46 35.474V29.39C101.46 29.294 101.406 29.246 101.298 29.246H100.344ZM115.519 32C113.803 32 112.945 32.528 112.945 33.584C112.945 33.968 113.053 34.28 113.269 34.52C113.497 34.76 113.785 34.88 114.133 34.88C114.817 34.88 115.369 34.67 115.789 34.25C116.209 33.818 116.419 33.23 116.419 32.486V32.162C116.419 32.054 116.365 32 116.257 32H115.519ZM113.485 36.68C112.669 36.68 111.991 36.416 111.451 35.888C110.923 35.348 110.659 34.652 110.659 33.8C110.659 32.756 111.055 31.946 111.847 31.37C112.651 30.794 113.875 30.506 115.519 30.506H116.257C116.365 30.506 116.419 30.452 116.419 30.344V30.2C116.419 29.648 116.287 29.264 116.023 29.048C115.759 28.82 115.291 28.706 114.619 28.706C113.923 28.706 113.071 28.832 112.063 29.084C111.847 29.144 111.649 29.108 111.469 28.976C111.289 28.832 111.199 28.646 111.199 28.418C111.199 28.142 111.283 27.896 111.451 27.68C111.619 27.452 111.835 27.314 112.099 27.266C113.011 27.062 113.869 26.96 114.673 26.96C116.209 26.96 117.283 27.236 117.895 27.788C118.507 28.34 118.813 29.306 118.813 30.686V35.474C118.813 35.75 118.711 35.99 118.507 36.194C118.315 36.398 118.081 36.5 117.805 36.5H117.607C117.319 36.5 117.073 36.404 116.869 36.212C116.665 36.008 116.557 35.762 116.545 35.474V35.222C116.545 35.21 116.539 35.204 116.527 35.204C116.503 35.204 116.491 35.21 116.491 35.222C115.759 36.194 114.757 36.68 113.485 36.68ZM124.565 36.5C124.289 36.5 124.049 36.398 123.845 36.194C123.641 35.99 123.539 35.75 123.539 35.474V28.166C123.539 27.89 123.641 27.65 123.845 27.446C124.049 27.242 124.289 27.14 124.565 27.14H124.925C125.201 27.14 125.441 27.242 125.645 27.446C125.849 27.65 125.951 27.89 125.951 28.166V28.922C125.951 28.934 125.957 28.94 125.969 28.94C125.993 28.94 126.005 28.934 126.005 28.922C126.353 28.442 126.809 28.052 127.373 27.752C127.937 27.44 128.555 27.248 129.227 27.176C129.479 27.152 129.695 27.236 129.875 27.428C130.055 27.608 130.145 27.824 130.145 28.076C130.145 28.328 130.055 28.544 129.875 28.724C129.695 28.904 129.479 29.006 129.227 29.03C127.103 29.198 126.041 30.278 126.041 32.27V35.474C126.041 35.75 125.939 35.99 125.735 36.194C125.531 36.398 125.291 36.5 125.015 36.5H124.565ZM135.623 36.5C135.347 36.5 135.107 36.398 134.903 36.194C134.711 35.99 134.615 35.75 134.615 35.474V28.166C134.615 27.89 134.711 27.65 134.903 27.446C135.107 27.242 135.347 27.14 135.623 27.14H135.875C136.151 27.14 136.385 27.236 136.577 27.428C136.781 27.62 136.889 27.854 136.901 28.13V28.256C136.901 28.268 136.907 28.274 136.919 28.274C136.943 28.274 136.955 28.268 136.955 28.256C137.663 27.392 138.461 26.96 139.349 26.96C139.889 26.96 140.321 27.062 140.645 27.266C140.981 27.47 141.275 27.83 141.527 28.346C141.527 28.358 141.539 28.364 141.563 28.364C141.575 28.364 141.587 28.358 141.599 28.346C142.355 27.422 143.207 26.96 144.155 26.96C145.151 26.96 145.865 27.23 146.297 27.77C146.741 28.31 146.963 29.24 146.963 30.56V35.474C146.963 35.75 146.861 35.99 146.657 36.194C146.465 36.398 146.231 36.5 145.955 36.5H145.649C145.373 36.5 145.133 36.398 144.929 36.194C144.725 35.99 144.623 35.75 144.623 35.474V30.92C144.623 30.044 144.539 29.468 144.371 29.192C144.203 28.916 143.879 28.778 143.399 28.778C143.087 28.778 142.775 28.922 142.463 29.21C142.151 29.498 141.995 29.786 141.995 30.074V35.474C141.995 35.75 141.893 35.99 141.689 36.194C141.485 36.398 141.245 36.5 140.969 36.5H140.663C140.387 36.5 140.147 36.398 139.943 36.194C139.751 35.99 139.655 35.75 139.655 35.474V30.92C139.655 30.056 139.565 29.486 139.385 29.21C139.217 28.922 138.893 28.778 138.413 28.778C138.101 28.778 137.789 28.922 137.477 29.21C137.165 29.498 137.009 29.786 137.009 30.074V35.474C137.009 35.75 136.907 35.99 136.703 36.194C136.499 36.398 136.259 36.5 135.983 36.5H135.623ZM153.269 36.5C152.993 36.5 152.753 36.398 152.549 36.194C152.345 35.99 152.243 35.75 152.243 35.474V28.166C152.243 27.89 152.345 27.65 152.549 27.446C152.753 27.242 152.993 27.14 153.269 27.14H153.737C154.013 27.14 154.253 27.242 154.457 27.446C154.661 27.65 154.763 27.89 154.763 28.166V35.474C154.763 35.75 154.661 35.99 154.457 36.194C154.253 36.398 154.013 36.5 153.737 36.5H153.269ZM153.269 25.16C152.993 25.16 152.753 25.058 152.549 24.854C152.345 24.65 152.243 24.41 152.243 24.134V24.026C152.243 23.75 152.345 23.51 152.549 23.306C152.753 23.102 152.993 23 153.269 23H153.737C154.013 23 154.253 23.102 154.457 23.306C154.661 23.51 154.763 23.75 154.763 24.026V24.134C154.763 24.41 154.661 24.65 154.457 24.854C154.253 25.058 154.013 25.16 153.737 25.16H153.269ZM161.151 36.5C160.875 36.5 160.635 36.398 160.431 36.194C160.227 35.99 160.125 35.75 160.125 35.474V28.166C160.125 27.89 160.227 27.65 160.431 27.446C160.635 27.242 160.875 27.14 161.151 27.14H161.385C161.673 27.14 161.913 27.242 162.105 27.446C162.309 27.638 162.417 27.878 162.429 28.166V28.292C162.429 28.304 162.435 28.31 162.447 28.31C162.459 28.31 162.471 28.304 162.483 28.292C163.299 27.404 164.253 26.96 165.345 26.96C166.437 26.96 167.229 27.272 167.721 27.896C168.225 28.508 168.477 29.534 168.477 30.974V35.474C168.477 35.75 168.375 35.99 168.171 36.194C167.967 36.398 167.727 36.5 167.451 36.5H167.145C166.869 36.5 166.629 36.398 166.425 36.194C166.233 35.99 166.137 35.75 166.137 35.474V31.154C166.137 30.254 166.017 29.642 165.777 29.318C165.549 28.982 165.135 28.814 164.535 28.814C164.043 28.814 163.587 29.024 163.167 29.444C162.747 29.864 162.537 30.314 162.537 30.794V35.474C162.537 35.75 162.435 35.99 162.231 36.194C162.027 36.398 161.787 36.5 161.511 36.5H161.151ZM177.022 28.76C175.702 28.76 175.042 29.72 175.042 31.64C175.042 32.636 175.216 33.38 175.564 33.872C175.924 34.364 176.41 34.61 177.022 34.61C177.562 34.61 178.024 34.418 178.408 34.034C178.804 33.65 179.002 33.2 179.002 32.684V30.74C179.002 30.188 178.804 29.72 178.408 29.336C178.024 28.952 177.562 28.76 177.022 28.76ZM176.266 36.41C175.21 36.41 174.346 35.99 173.674 35.15C173.002 34.298 172.666 33.128 172.666 31.64C172.666 30.152 172.984 29 173.62 28.184C174.268 27.368 175.15 26.96 176.266 26.96C176.83 26.96 177.328 27.062 177.76 27.266C178.192 27.47 178.618 27.812 179.038 28.292C179.05 28.304 179.062 28.31 179.074 28.31C179.086 28.31 179.092 28.304 179.092 28.292V28.166C179.104 27.878 179.212 27.638 179.416 27.446C179.62 27.242 179.866 27.14 180.154 27.14H180.352C180.628 27.14 180.862 27.242 181.054 27.446C181.258 27.65 181.36 27.89 181.36 28.166V35.78C181.36 39.02 179.74 40.64 176.5 40.64C175.924 40.64 175.318 40.592 174.682 40.496C174.394 40.448 174.154 40.304 173.962 40.064C173.782 39.836 173.692 39.572 173.692 39.272C173.692 39.032 173.788 38.84 173.98 38.696C174.184 38.564 174.406 38.528 174.646 38.588C175.222 38.732 175.822 38.804 176.446 38.804C177.334 38.804 177.982 38.57 178.39 38.102C178.798 37.646 179.002 36.89 179.002 35.834V35.276C179.002 35.264 178.996 35.258 178.984 35.258C178.972 35.258 178.96 35.264 178.948 35.276C178.228 36.032 177.334 36.41 176.266 36.41ZM222.391 26.222C221.983 25.502 221.359 25.142 220.519 25.142C219.679 25.142 219.055 25.502 218.647 26.222C218.239 26.942 218.035 28.178 218.035 29.93C218.035 31.682 218.239 32.918 218.647 33.638C219.055 34.358 219.679 34.718 220.519 34.718C221.359 34.718 221.983 34.358 222.391 33.638C222.799 32.918 223.003 31.682 223.003 29.93C223.003 28.178 222.799 26.942 222.391 26.222ZM224.299 35.078C223.471 36.146 222.211 36.68 220.519 36.68C218.827 36.68 217.561 36.146 216.721 35.078C215.893 34.01 215.479 32.294 215.479 29.93C215.479 27.566 215.893 25.85 216.721 24.782C217.561 23.714 218.827 23.18 220.519 23.18C222.211 23.18 223.471 23.714 224.299 24.782C225.139 25.85 225.559 27.566 225.559 29.93C225.559 32.294 225.139 34.01 224.299 35.078ZM231.241 36.5C230.965 36.5 230.725 36.398 230.521 36.194C230.317 35.99 230.215 35.75 230.215 35.474V34.466C230.215 34.19 230.317 33.95 230.521 33.746C230.725 33.542 230.965 33.44 231.241 33.44H232.069C232.345 33.44 232.585 33.542 232.789 33.746C232.993 33.95 233.095 34.19 233.095 34.466V35.474C233.095 35.75 232.993 35.99 232.789 36.194C232.585 36.398 232.345 36.5 232.069 36.5H231.241ZM244.667 26.222C244.259 25.502 243.635 25.142 242.795 25.142C241.955 25.142 241.331 25.502 240.923 26.222C240.515 26.942 240.311 28.178 240.311 29.93C240.311 31.682 240.515 32.918 240.923 33.638C241.331 34.358 241.955 34.718 242.795 34.718C243.635 34.718 244.259 34.358 244.667 33.638C245.075 32.918 245.279 31.682 245.279 29.93C245.279 28.178 245.075 26.942 244.667 26.222ZM246.575 35.078C245.747 36.146 244.487 36.68 242.795 36.68C241.103 36.68 239.837 36.146 238.997 35.078C238.169 34.01 237.755 32.294 237.755 29.93C237.755 27.566 238.169 25.85 238.997 24.782C239.837 23.714 241.103 23.18 242.795 23.18C244.487 23.18 245.747 23.714 246.575 24.782C247.415 25.85 247.835 27.566 247.835 29.93C247.835 32.294 247.415 34.01 246.575 35.078ZM253.517 36.41C253.229 36.338 252.989 36.182 252.797 35.942C252.617 35.69 252.527 35.408 252.527 35.096V34.916C252.527 34.676 252.623 34.484 252.815 34.34C253.019 34.196 253.235 34.16 253.463 34.232C254.363 34.508 255.137 34.646 255.785 34.646C257.693 34.646 258.647 33.782 258.647 32.054C258.647 30.626 257.957 29.912 256.577 29.912C256.217 29.912 255.875 29.978 255.551 30.11C254.675 30.47 254.057 30.65 253.697 30.65H253.571C253.295 30.65 253.061 30.548 252.869 30.344C252.677 30.14 252.587 29.9 252.599 29.624L252.869 24.386C252.893 24.098 253.001 23.858 253.193 23.666C253.397 23.462 253.643 23.36 253.931 23.36H259.547C259.823 23.36 260.057 23.462 260.249 23.666C260.453 23.87 260.555 24.11 260.555 24.386C260.555 24.662 260.453 24.902 260.249 25.106C260.057 25.298 259.823 25.394 259.547 25.394H255.353C255.245 25.394 255.191 25.448 255.191 25.556L255.047 28.418C255.047 28.43 255.053 28.436 255.065 28.436H255.083L255.101 28.418C255.701 28.13 256.349 27.986 257.045 27.986C258.341 27.986 259.343 28.34 260.051 29.048C260.771 29.756 261.131 30.758 261.131 32.054C261.131 35.138 259.373 36.68 255.857 36.68C255.053 36.68 254.273 36.59 253.517 36.41Z" fill="#4B3232"/>
</g>
<defs>
<filter id="filter0_d_374_3129" x="0" y="0" width="364" height="64" filterUnits="userSpaceOnUse" color-interpolation-filters="sRGB">
<feFlood flood-opacity="0" result="BackgroundImageFix"/>
<feColorMatrix in="SourceAlpha" type="matrix" values="0 0 0 0 0 0 0 0 0 0 0 0 0 0 0 0 0 0 127 0" result="hardAlpha"/>
<feOffset dx="-4" dy="4"/>
<feComposite in2="hardAlpha" operator="out"/>
<feColorMatrix type="matrix" values="0 0 0 0 0.113725 0 0 0 0 0.113725 0 0 0 0 0.113725 0 0 0 0.97 0"/>
<feBlend mode="normal" in2="BackgroundImageFix" result="effect1_dropShadow_374_3129"/>
<feBlend mode="normal" in="SourceGraphic" in2="effect1_dropShadow_374_3129" result="shape"/>
</filter>
</defs>
</svg>
