<svg width="364" height="64" viewBox="0 0 364 64" fill="none" xmlns="http://www.w3.org/2000/svg">
<g filter="url(#filter0_d_374_3119)">
<rect x="4" width="360" height="60" rx="26" fill="#FFE5A1" shape-rendering="crispEdges"/>
<rect x="4.5" y="0.5" width="359" height="59" rx="25.5" stroke="#1D1D1D" shape-rendering="crispEdges"/>
<path d="M98.1978 37.71C96.4618 37.71 95.1248 37.234 94.1868 36.282C93.2488 35.316 92.7798 33.902 92.7798 32.04C92.7798 30.206 93.2278 28.806 94.1238 27.84C95.0338 26.86 96.3218 26.37 97.9878 26.37C98.7298 26.37 99.4438 26.419 100.13 26.517C100.452 26.559 100.718 26.706 100.928 26.958C101.138 27.21 101.243 27.504 101.243 27.84C101.243 28.12 101.131 28.344 100.907 28.512C100.697 28.68 100.452 28.736 100.172 28.68C99.6258 28.568 99.0168 28.512 98.3448 28.512C97.4628 28.512 96.8048 28.792 96.3708 29.352C95.9368 29.912 95.7198 30.808 95.7198 32.04C95.7198 33.3 95.9508 34.203 96.4128 34.749C96.8748 35.295 97.5888 35.568 98.5548 35.568C99.2408 35.568 99.8358 35.505 100.34 35.379C100.606 35.309 100.844 35.358 101.054 35.526C101.278 35.694 101.39 35.911 101.39 36.177C101.39 36.513 101.285 36.807 101.075 37.059C100.879 37.311 100.62 37.465 100.298 37.521C99.5838 37.647 98.8838 37.71 98.1978 37.71ZM108.736 37.5C108.414 37.5 108.134 37.381 107.896 37.143C107.658 36.905 107.539 36.625 107.539 36.303V22.947C107.539 22.625 107.658 22.345 107.896 22.107C108.134 21.869 108.414 21.75 108.736 21.75H109.282C109.604 21.75 109.884 21.869 110.122 22.107C110.36 22.345 110.479 22.625 110.479 22.947V36.303C110.479 36.625 110.36 36.905 110.122 37.143C109.884 37.381 109.604 37.5 109.282 37.5H108.736ZM121.88 32.25C119.878 32.25 118.877 32.866 118.877 34.098C118.877 34.546 119.003 34.91 119.255 35.19C119.521 35.47 119.857 35.61 120.263 35.61C121.061 35.61 121.705 35.365 122.195 34.875C122.685 34.371 122.93 33.685 122.93 32.817V32.439C122.93 32.313 122.867 32.25 122.741 32.25H121.88ZM119.507 37.71C118.555 37.71 117.764 37.402 117.134 36.786C116.518 36.156 116.21 35.344 116.21 34.35C116.21 33.132 116.672 32.187 117.596 31.515C118.534 30.843 119.962 30.507 121.88 30.507H122.741C122.867 30.507 122.93 30.444 122.93 30.318V30.15C122.93 29.506 122.776 29.058 122.468 28.806C122.16 28.54 121.614 28.407 120.83 28.407C120.018 28.407 119.024 28.554 117.848 28.848C117.596 28.918 117.365 28.876 117.155 28.722C116.945 28.554 116.84 28.337 116.84 28.071C116.84 27.749 116.938 27.462 117.134 27.21C117.33 26.944 117.582 26.783 117.89 26.727C118.954 26.489 119.955 26.37 120.893 26.37C122.685 26.37 123.938 26.692 124.652 27.336C125.366 27.98 125.723 29.107 125.723 30.717V36.303C125.723 36.625 125.604 36.905 125.366 37.143C125.142 37.381 124.869 37.5 124.547 37.5H124.316C123.98 37.5 123.693 37.388 123.455 37.164C123.217 36.926 123.091 36.639 123.077 36.303V36.009C123.077 35.995 123.07 35.988 123.056 35.988C123.028 35.988 123.014 35.995 123.014 36.009C122.16 37.143 120.991 37.71 119.507 37.71ZM133.063 37.5C132.741 37.5 132.461 37.381 132.223 37.143C131.985 36.905 131.866 36.625 131.866 36.303V27.777C131.866 27.455 131.985 27.175 132.223 26.937C132.461 26.699 132.741 26.58 133.063 26.58H133.609C133.931 26.58 134.211 26.699 134.449 26.937C134.687 27.175 134.806 27.455 134.806 27.777V36.303C134.806 36.625 134.687 36.905 134.449 37.143C134.211 37.381 133.931 37.5 133.609 37.5H133.063ZM133.063 24.27C132.741 24.27 132.461 24.151 132.223 23.913C131.985 23.675 131.866 23.395 131.866 23.073V22.947C131.866 22.625 131.985 22.345 132.223 22.107C132.461 21.869 132.741 21.75 133.063 21.75H133.609C133.931 21.75 134.211 21.869 134.449 22.107C134.687 22.345 134.806 22.625 134.806 22.947V23.073C134.806 23.395 134.687 23.675 134.449 23.913C134.211 24.151 133.931 24.27 133.609 24.27H133.063ZM142.238 37.5C141.916 37.5 141.636 37.381 141.398 37.143C141.174 36.905 141.062 36.625 141.062 36.303V27.777C141.062 27.455 141.174 27.175 141.398 26.937C141.636 26.699 141.916 26.58 142.238 26.58H142.532C142.854 26.58 143.127 26.692 143.351 26.916C143.589 27.14 143.715 27.413 143.729 27.735V27.882C143.729 27.896 143.736 27.903 143.75 27.903C143.778 27.903 143.792 27.896 143.792 27.882C144.618 26.874 145.549 26.37 146.585 26.37C147.215 26.37 147.719 26.489 148.097 26.727C148.489 26.965 148.832 27.385 149.126 27.987C149.126 28.001 149.14 28.008 149.168 28.008C149.182 28.008 149.196 28.001 149.21 27.987C150.092 26.909 151.086 26.37 152.192 26.37C153.354 26.37 154.187 26.685 154.691 27.315C155.209 27.945 155.468 29.03 155.468 30.57V36.303C155.468 36.625 155.349 36.905 155.111 37.143C154.887 37.381 154.614 37.5 154.292 37.5H153.935C153.613 37.5 153.333 37.381 153.095 37.143C152.857 36.905 152.738 36.625 152.738 36.303V30.99C152.738 29.968 152.64 29.296 152.444 28.974C152.248 28.652 151.87 28.491 151.31 28.491C150.946 28.491 150.582 28.659 150.218 28.995C149.854 29.331 149.672 29.667 149.672 30.003V36.303C149.672 36.625 149.553 36.905 149.315 37.143C149.077 37.381 148.797 37.5 148.475 37.5H148.118C147.796 37.5 147.516 37.381 147.278 37.143C147.054 36.905 146.942 36.625 146.942 36.303V30.99C146.942 29.982 146.837 29.317 146.627 28.995C146.431 28.659 146.053 28.491 145.493 28.491C145.129 28.491 144.765 28.659 144.401 28.995C144.037 29.331 143.855 29.667 143.855 30.003V36.303C143.855 36.625 143.736 36.905 143.498 37.143C143.26 37.381 142.98 37.5 142.658 37.5H142.238ZM173.455 33.09C171.985 32.768 170.935 32.327 170.305 31.767C169.689 31.207 169.381 30.479 169.381 29.583C169.381 28.575 169.752 27.791 170.494 27.231C171.25 26.657 172.363 26.37 173.833 26.37C174.757 26.37 175.674 26.454 176.584 26.622C176.892 26.678 177.137 26.832 177.319 27.084C177.515 27.322 177.613 27.602 177.613 27.924C177.613 28.19 177.508 28.407 177.298 28.575C177.088 28.729 176.85 28.771 176.584 28.701C175.8 28.505 174.974 28.407 174.106 28.407C172.846 28.407 172.216 28.757 172.216 29.457C172.216 29.793 172.335 30.073 172.573 30.297C172.811 30.521 173.217 30.696 173.791 30.822C175.401 31.144 176.5 31.578 177.088 32.124C177.69 32.67 177.991 33.468 177.991 34.518C177.991 35.526 177.613 36.31 176.857 36.87C176.101 37.43 175.002 37.71 173.56 37.71C172.622 37.71 171.663 37.598 170.683 37.374C170.375 37.304 170.123 37.143 169.927 36.891C169.731 36.625 169.633 36.324 169.633 35.988C169.633 35.722 169.738 35.519 169.948 35.379C170.172 35.239 170.41 35.204 170.662 35.274C171.572 35.526 172.433 35.652 173.245 35.652C174.519 35.652 175.156 35.274 175.156 34.518C175.156 34.154 175.03 33.867 174.778 33.657C174.54 33.447 174.099 33.258 173.455 33.09ZM186.067 30.612V33.468C186.067 34.028 186.305 34.525 186.781 34.959C187.271 35.393 187.838 35.61 188.482 35.61C189.224 35.61 189.812 35.309 190.246 34.707C190.68 34.105 190.897 33.216 190.897 32.04C190.897 29.66 190.092 28.47 188.482 28.47C187.838 28.47 187.271 28.687 186.781 29.121C186.305 29.555 186.067 30.052 186.067 30.612ZM184.492 42.12C184.17 42.12 183.89 42.001 183.652 41.763C183.414 41.525 183.295 41.245 183.295 40.923V27.777C183.295 27.455 183.414 27.175 183.652 26.937C183.89 26.699 184.17 26.58 184.492 26.58H184.744C185.08 26.58 185.367 26.699 185.605 26.937C185.843 27.161 185.969 27.441 185.983 27.777V27.924C185.983 27.938 185.99 27.945 186.004 27.945C186.018 27.945 186.032 27.938 186.046 27.924C186.55 27.364 187.054 26.965 187.558 26.727C188.062 26.489 188.65 26.37 189.322 26.37C190.638 26.37 191.688 26.867 192.472 27.861C193.256 28.841 193.648 30.234 193.648 32.04C193.648 33.79 193.235 35.176 192.409 36.198C191.597 37.206 190.568 37.71 189.322 37.71C188.104 37.71 187.047 37.269 186.151 36.387C186.137 36.373 186.123 36.366 186.109 36.366C186.095 36.366 186.088 36.373 186.088 36.387V40.923C186.088 41.245 185.969 41.525 185.731 41.763C185.507 42.001 185.234 42.12 184.912 42.12H184.492ZM200.254 37.395C199.918 37.311 199.638 37.129 199.414 36.849C199.204 36.555 199.099 36.226 199.099 35.862V35.652C199.099 35.372 199.211 35.148 199.435 34.98C199.673 34.812 199.925 34.77 200.191 34.854C201.241 35.176 202.144 35.337 202.9 35.337C205.126 35.337 206.239 34.329 206.239 32.313C206.239 30.647 205.434 29.814 203.824 29.814C203.404 29.814 203.005 29.891 202.627 30.045C201.605 30.465 200.884 30.675 200.464 30.675H200.317C199.995 30.675 199.722 30.556 199.498 30.318C199.274 30.08 199.169 29.8 199.183 29.478L199.498 23.367C199.526 23.031 199.652 22.751 199.876 22.527C200.114 22.289 200.401 22.17 200.737 22.17H207.289C207.611 22.17 207.884 22.289 208.108 22.527C208.346 22.765 208.465 23.045 208.465 23.367C208.465 23.689 208.346 23.969 208.108 24.207C207.884 24.431 207.611 24.543 207.289 24.543H202.396C202.27 24.543 202.207 24.606 202.207 24.732L202.039 28.071C202.039 28.085 202.046 28.092 202.06 28.092H202.081L202.102 28.071C202.802 27.735 203.558 27.567 204.37 27.567C205.882 27.567 207.051 27.98 207.877 28.806C208.717 29.632 209.137 30.801 209.137 32.313C209.137 35.911 207.086 37.71 202.984 37.71C202.046 37.71 201.136 37.605 200.254 37.395ZM222.255 25.509C221.779 24.669 221.051 24.249 220.071 24.249C219.091 24.249 218.363 24.669 217.887 25.509C217.411 26.349 217.173 27.791 217.173 29.835C217.173 31.879 217.411 33.321 217.887 34.161C218.363 35.001 219.091 35.421 220.071 35.421C221.051 35.421 221.779 35.001 222.255 34.161C222.731 33.321 222.969 31.879 222.969 29.835C222.969 27.791 222.731 26.349 222.255 25.509ZM224.481 35.841C223.515 37.087 222.045 37.71 220.071 37.71C218.097 37.71 216.62 37.087 215.64 35.841C214.674 34.595 214.191 32.593 214.191 29.835C214.191 27.077 214.674 25.075 215.64 23.829C216.62 22.583 218.097 21.96 220.071 21.96C222.045 21.96 223.515 22.583 224.481 23.829C225.461 25.075 225.951 27.077 225.951 29.835C225.951 32.593 225.461 34.595 224.481 35.841ZM232.579 37.5C232.257 37.5 231.977 37.381 231.739 37.143C231.501 36.905 231.382 36.625 231.382 36.303V35.127C231.382 34.805 231.501 34.525 231.739 34.287C231.977 34.049 232.257 33.93 232.579 33.93H233.545C233.867 33.93 234.147 34.049 234.385 34.287C234.623 34.525 234.742 34.805 234.742 35.127V36.303C234.742 36.625 234.623 36.905 234.385 37.143C234.147 37.381 233.867 37.5 233.545 37.5H232.579ZM242.405 37.395C242.069 37.311 241.789 37.129 241.565 36.849C241.355 36.555 241.25 36.226 241.25 35.862V35.652C241.25 35.372 241.362 35.148 241.586 34.98C241.824 34.812 242.076 34.77 242.342 34.854C243.392 35.176 244.295 35.337 245.051 35.337C247.277 35.337 248.39 34.329 248.39 32.313C248.39 30.647 247.585 29.814 245.975 29.814C245.555 29.814 245.156 29.891 244.778 30.045C243.756 30.465 243.035 30.675 242.615 30.675H242.468C242.146 30.675 241.873 30.556 241.649 30.318C241.425 30.08 241.32 29.8 241.334 29.478L241.649 23.367C241.677 23.031 241.803 22.751 242.027 22.527C242.265 22.289 242.552 22.17 242.888 22.17H249.44C249.762 22.17 250.035 22.289 250.259 22.527C250.497 22.765 250.616 23.045 250.616 23.367C250.616 23.689 250.497 23.969 250.259 24.207C250.035 24.431 249.762 24.543 249.44 24.543H244.547C244.421 24.543 244.358 24.606 244.358 24.732L244.19 28.071C244.19 28.085 244.197 28.092 244.211 28.092H244.232L244.253 28.071C244.953 27.735 245.709 27.567 246.521 27.567C248.033 27.567 249.202 27.98 250.028 28.806C250.868 29.632 251.288 30.801 251.288 32.313C251.288 35.911 249.237 37.71 245.135 37.71C244.197 37.71 243.287 37.605 242.405 37.395ZM264.406 25.509C263.93 24.669 263.202 24.249 262.222 24.249C261.242 24.249 260.514 24.669 260.038 25.509C259.562 26.349 259.324 27.791 259.324 29.835C259.324 31.879 259.562 33.321 260.038 34.161C260.514 35.001 261.242 35.421 262.222 35.421C263.202 35.421 263.93 35.001 264.406 34.161C264.882 33.321 265.12 31.879 265.12 29.835C265.12 27.791 264.882 26.349 264.406 25.509ZM266.632 35.841C265.666 37.087 264.196 37.71 262.222 37.71C260.248 37.71 258.771 37.087 257.791 35.841C256.825 34.595 256.342 32.593 256.342 29.835C256.342 27.077 256.825 25.075 257.791 23.829C258.771 22.583 260.248 21.96 262.222 21.96C264.196 21.96 265.666 22.583 266.632 23.829C267.612 25.075 268.102 27.077 268.102 29.835C268.102 32.593 267.612 34.595 266.632 35.841Z" fill="#4B3232"/>
</g>
<defs>
<filter id="filter0_d_374_3119" x="0" y="0" width="364" height="64" filterUnits="userSpaceOnUse" color-interpolation-filters="sRGB">
<feFlood flood-opacity="0" result="BackgroundImageFix"/>
<feColorMatrix in="SourceAlpha" type="matrix" values="0 0 0 0 0 0 0 0 0 0 0 0 0 0 0 0 0 0 127 0" result="hardAlpha"/>
<feOffset dx="-4" dy="4"/>
<feComposite in2="hardAlpha" operator="out"/>
<feColorMatrix type="matrix" values="0 0 0 0 0.113725 0 0 0 0 0.113725 0 0 0 0 0.113725 0 0 0 0.97 0"/>
<feBlend mode="normal" in2="BackgroundImageFix" result="effect1_dropShadow_374_3119"/>
<feBlend mode="normal" in="SourceGraphic" in2="effect1_dropShadow_374_3119" result="shape"/>
</filter>
</defs>
</svg>
