<svg width="364" height="64" viewBox="0 0 364 64" fill="none" xmlns="http://www.w3.org/2000/svg">
<g filter="url(#filter0_d_374_3125)">
<rect x="4" width="360" height="60" rx="26" fill="#FCDAF6" fill-opacity="0.96" shape-rendering="crispEdges"/>
<rect x="4.5" y="0.5" width="359" height="59" rx="25.5" stroke="#1D1D1D" shape-rendering="crispEdges"/>
<path d="M99.4325 33.09C97.9625 32.768 96.9125 32.327 96.2825 31.767C95.6665 31.207 95.3585 30.479 95.3585 29.583C95.3585 28.575 95.7295 27.791 96.4715 27.231C97.2275 26.657 98.3405 26.37 99.8105 26.37C100.734 26.37 101.651 26.454 102.561 26.622C102.869 26.678 103.114 26.832 103.296 27.084C103.492 27.322 103.59 27.602 103.59 27.924C103.59 28.19 103.485 28.407 103.275 28.575C103.065 28.729 102.827 28.771 102.561 28.701C101.777 28.505 100.951 28.407 100.083 28.407C98.8235 28.407 98.1935 28.757 98.1935 29.457C98.1935 29.793 98.3125 30.073 98.5505 30.297C98.7885 30.521 99.1945 30.696 99.7685 30.822C101.378 31.144 102.477 31.578 103.065 32.124C103.667 32.67 103.968 33.468 103.968 34.518C103.968 35.526 103.59 36.31 102.834 36.87C102.078 37.43 100.979 37.71 99.5375 37.71C98.5995 37.71 97.6405 37.598 96.6605 37.374C96.3525 37.304 96.1005 37.143 95.9045 36.891C95.7085 36.625 95.6105 36.324 95.6105 35.988C95.6105 35.722 95.7155 35.519 95.9255 35.379C96.1495 35.239 96.3875 35.204 96.6395 35.274C97.5495 35.526 98.4105 35.652 99.2225 35.652C100.496 35.652 101.133 35.274 101.133 34.518C101.133 34.154 101.007 33.867 100.755 33.657C100.517 33.447 100.076 33.258 99.4325 33.09ZM109.345 29.037C109.065 29.037 108.827 28.939 108.631 28.743C108.435 28.533 108.337 28.288 108.337 28.008C108.337 27.728 108.435 27.49 108.631 27.294C108.827 27.098 109.065 27 109.345 27H110.353C110.479 27 110.542 26.937 110.542 26.811V24.207C110.542 23.885 110.654 23.605 110.878 23.367C111.116 23.129 111.396 23.01 111.718 23.01H112.138C112.46 23.01 112.74 23.129 112.978 23.367C113.216 23.605 113.335 23.885 113.335 24.207V26.811C113.335 26.937 113.398 27 113.524 27H115.918C116.198 27 116.436 27.098 116.632 27.294C116.842 27.49 116.947 27.728 116.947 28.008C116.947 28.288 116.842 28.533 116.632 28.743C116.436 28.939 116.198 29.037 115.918 29.037H113.524C113.398 29.037 113.335 29.093 113.335 29.205V33.447C113.335 34.357 113.433 34.945 113.629 35.211C113.825 35.477 114.231 35.61 114.847 35.61C115.183 35.61 115.435 35.596 115.603 35.568C115.883 35.54 116.128 35.603 116.338 35.757C116.548 35.911 116.653 36.121 116.653 36.387C116.653 36.695 116.548 36.975 116.338 37.227C116.142 37.465 115.897 37.598 115.603 37.626C114.987 37.682 114.525 37.71 114.217 37.71C112.859 37.71 111.907 37.423 111.361 36.849C110.815 36.261 110.542 35.218 110.542 33.72V29.205C110.542 29.093 110.479 29.037 110.353 29.037H109.345ZM127.525 32.25C125.523 32.25 124.522 32.866 124.522 34.098C124.522 34.546 124.648 34.91 124.9 35.19C125.166 35.47 125.502 35.61 125.908 35.61C126.706 35.61 127.35 35.365 127.84 34.875C128.33 34.371 128.575 33.685 128.575 32.817V32.439C128.575 32.313 128.512 32.25 128.386 32.25H127.525ZM125.152 37.71C124.2 37.71 123.409 37.402 122.779 36.786C122.163 36.156 121.855 35.344 121.855 34.35C121.855 33.132 122.317 32.187 123.241 31.515C124.179 30.843 125.607 30.507 127.525 30.507H128.386C128.512 30.507 128.575 30.444 128.575 30.318V30.15C128.575 29.506 128.421 29.058 128.113 28.806C127.805 28.54 127.259 28.407 126.475 28.407C125.663 28.407 124.669 28.554 123.493 28.848C123.241 28.918 123.01 28.876 122.8 28.722C122.59 28.554 122.485 28.337 122.485 28.071C122.485 27.749 122.583 27.462 122.779 27.21C122.975 26.944 123.227 26.783 123.535 26.727C124.599 26.489 125.6 26.37 126.538 26.37C128.33 26.37 129.583 26.692 130.297 27.336C131.011 27.98 131.368 29.107 131.368 30.717V36.303C131.368 36.625 131.249 36.905 131.011 37.143C130.787 37.381 130.514 37.5 130.192 37.5H129.961C129.625 37.5 129.338 37.388 129.1 37.164C128.862 36.926 128.736 36.639 128.722 36.303V36.009C128.722 35.995 128.715 35.988 128.701 35.988C128.673 35.988 128.659 35.995 128.659 36.009C127.805 37.143 126.636 37.71 125.152 37.71ZM138.078 37.5C137.756 37.5 137.476 37.381 137.238 37.143C137 36.905 136.881 36.625 136.881 36.303V27.777C136.881 27.455 137 27.175 137.238 26.937C137.476 26.699 137.756 26.58 138.078 26.58H138.498C138.82 26.58 139.1 26.699 139.338 26.937C139.576 27.175 139.695 27.455 139.695 27.777V28.659C139.695 28.673 139.702 28.68 139.716 28.68C139.744 28.68 139.758 28.673 139.758 28.659C140.164 28.099 140.696 27.644 141.354 27.294C142.012 26.93 142.733 26.706 143.517 26.622C143.811 26.594 144.063 26.692 144.273 26.916C144.483 27.126 144.588 27.378 144.588 27.672C144.588 27.966 144.483 28.218 144.273 28.428C144.063 28.638 143.811 28.757 143.517 28.785C141.039 28.981 139.8 30.241 139.8 32.565V36.303C139.8 36.625 139.681 36.905 139.443 37.143C139.205 37.381 138.925 37.5 138.603 37.5H138.078ZM150.286 29.037C150.006 29.037 149.768 28.939 149.572 28.743C149.376 28.533 149.278 28.288 149.278 28.008C149.278 27.728 149.376 27.49 149.572 27.294C149.768 27.098 150.006 27 150.286 27H151.294C151.42 27 151.483 26.937 151.483 26.811V24.207C151.483 23.885 151.595 23.605 151.819 23.367C152.057 23.129 152.337 23.01 152.659 23.01H153.079C153.401 23.01 153.681 23.129 153.919 23.367C154.157 23.605 154.276 23.885 154.276 24.207V26.811C154.276 26.937 154.339 27 154.465 27H156.859C157.139 27 157.377 27.098 157.573 27.294C157.783 27.49 157.888 27.728 157.888 28.008C157.888 28.288 157.783 28.533 157.573 28.743C157.377 28.939 157.139 29.037 156.859 29.037H154.465C154.339 29.037 154.276 29.093 154.276 29.205V33.447C154.276 34.357 154.374 34.945 154.57 35.211C154.766 35.477 155.172 35.61 155.788 35.61C156.124 35.61 156.376 35.596 156.544 35.568C156.824 35.54 157.069 35.603 157.279 35.757C157.489 35.911 157.594 36.121 157.594 36.387C157.594 36.695 157.489 36.975 157.279 37.227C157.083 37.465 156.838 37.598 156.544 37.626C155.928 37.682 155.466 37.71 155.158 37.71C153.8 37.71 152.848 37.423 152.302 36.849C151.756 36.261 151.483 35.218 151.483 33.72V29.205C151.483 29.093 151.42 29.037 151.294 29.037H150.286ZM172.811 29.037C172.531 29.037 172.293 28.939 172.097 28.743C171.901 28.533 171.803 28.288 171.803 28.008C171.803 27.728 171.901 27.49 172.097 27.294C172.293 27.098 172.531 27 172.811 27H173.924C174.05 27 174.113 26.937 174.113 26.811V26.307C174.113 24.795 174.442 23.696 175.1 23.01C175.758 22.31 176.801 21.96 178.229 21.96C178.705 21.96 179.118 21.988 179.468 22.044C179.762 22.086 180 22.233 180.182 22.485C180.378 22.723 180.476 22.996 180.476 23.304C180.476 23.556 180.371 23.759 180.161 23.913C179.951 24.053 179.72 24.102 179.468 24.06C179.188 24.032 178.985 24.018 178.859 24.018C178.145 24.018 177.655 24.172 177.389 24.48C177.137 24.774 177.011 25.355 177.011 26.223V26.811C177.011 26.937 177.074 27 177.2 27H179.258C179.538 27 179.776 27.098 179.972 27.294C180.168 27.49 180.266 27.728 180.266 28.008C180.266 28.288 180.168 28.533 179.972 28.743C179.776 28.939 179.538 29.037 179.258 29.037H177.2C177.074 29.037 177.011 29.093 177.011 29.205V36.303C177.011 36.625 176.892 36.905 176.654 37.143C176.416 37.381 176.136 37.5 175.814 37.5H175.289C174.967 37.5 174.687 37.381 174.449 37.143C174.225 36.905 174.113 36.625 174.113 36.303V29.205C174.113 29.093 174.05 29.037 173.924 29.037H172.811ZM190.516 32.25C188.514 32.25 187.513 32.866 187.513 34.098C187.513 34.546 187.639 34.91 187.891 35.19C188.157 35.47 188.493 35.61 188.899 35.61C189.697 35.61 190.341 35.365 190.831 34.875C191.321 34.371 191.566 33.685 191.566 32.817V32.439C191.566 32.313 191.503 32.25 191.377 32.25H190.516ZM188.143 37.71C187.191 37.71 186.4 37.402 185.77 36.786C185.154 36.156 184.846 35.344 184.846 34.35C184.846 33.132 185.308 32.187 186.232 31.515C187.17 30.843 188.598 30.507 190.516 30.507H191.377C191.503 30.507 191.566 30.444 191.566 30.318V30.15C191.566 29.506 191.412 29.058 191.104 28.806C190.796 28.54 190.25 28.407 189.466 28.407C188.654 28.407 187.66 28.554 186.484 28.848C186.232 28.918 186.001 28.876 185.791 28.722C185.581 28.554 185.476 28.337 185.476 28.071C185.476 27.749 185.574 27.462 185.77 27.21C185.966 26.944 186.218 26.783 186.526 26.727C187.59 26.489 188.591 26.37 189.529 26.37C191.321 26.37 192.574 26.692 193.288 27.336C194.002 27.98 194.359 29.107 194.359 30.717V36.303C194.359 36.625 194.24 36.905 194.002 37.143C193.778 37.381 193.505 37.5 193.183 37.5H192.952C192.616 37.5 192.329 37.388 192.091 37.164C191.853 36.926 191.727 36.639 191.713 36.303V36.009C191.713 35.995 191.706 35.988 191.692 35.988C191.664 35.988 191.65 35.995 191.65 36.009C190.796 37.143 189.627 37.71 188.143 37.71ZM201.07 37.5C200.748 37.5 200.468 37.381 200.23 37.143C199.992 36.905 199.873 36.625 199.873 36.303V27.777C199.873 27.455 199.992 27.175 200.23 26.937C200.468 26.699 200.748 26.58 201.07 26.58H201.49C201.812 26.58 202.092 26.699 202.33 26.937C202.568 27.175 202.687 27.455 202.687 27.777V28.659C202.687 28.673 202.694 28.68 202.708 28.68C202.736 28.68 202.75 28.673 202.75 28.659C203.156 28.099 203.688 27.644 204.346 27.294C205.004 26.93 205.725 26.706 206.509 26.622C206.803 26.594 207.055 26.692 207.265 26.916C207.475 27.126 207.58 27.378 207.58 27.672C207.58 27.966 207.475 28.218 207.265 28.428C207.055 28.638 206.803 28.757 206.509 28.785C204.031 28.981 202.792 30.241 202.792 32.565V36.303C202.792 36.625 202.673 36.905 202.435 37.143C202.197 37.381 201.917 37.5 201.595 37.5H201.07ZM213.971 37.5C213.649 37.5 213.369 37.381 213.131 37.143C212.907 36.905 212.795 36.625 212.795 36.303V27.777C212.795 27.455 212.907 27.175 213.131 26.937C213.369 26.699 213.649 26.58 213.971 26.58H214.265C214.587 26.58 214.86 26.692 215.084 26.916C215.322 27.14 215.448 27.413 215.462 27.735V27.882C215.462 27.896 215.469 27.903 215.483 27.903C215.511 27.903 215.525 27.896 215.525 27.882C216.351 26.874 217.282 26.37 218.318 26.37C218.948 26.37 219.452 26.489 219.83 26.727C220.222 26.965 220.565 27.385 220.859 27.987C220.859 28.001 220.873 28.008 220.901 28.008C220.915 28.008 220.929 28.001 220.943 27.987C221.825 26.909 222.819 26.37 223.925 26.37C225.087 26.37 225.92 26.685 226.424 27.315C226.942 27.945 227.201 29.03 227.201 30.57V36.303C227.201 36.625 227.082 36.905 226.844 37.143C226.62 37.381 226.347 37.5 226.025 37.5H225.668C225.346 37.5 225.066 37.381 224.828 37.143C224.59 36.905 224.471 36.625 224.471 36.303V30.99C224.471 29.968 224.373 29.296 224.177 28.974C223.981 28.652 223.603 28.491 223.043 28.491C222.679 28.491 222.315 28.659 221.951 28.995C221.587 29.331 221.405 29.667 221.405 30.003V36.303C221.405 36.625 221.286 36.905 221.048 37.143C220.81 37.381 220.53 37.5 220.208 37.5H219.851C219.529 37.5 219.249 37.381 219.011 37.143C218.787 36.905 218.675 36.625 218.675 36.303V30.99C218.675 29.982 218.57 29.317 218.36 28.995C218.164 28.659 217.786 28.491 217.226 28.491C216.862 28.491 216.498 28.659 216.134 28.995C215.77 29.331 215.588 29.667 215.588 30.003V36.303C215.588 36.625 215.469 36.905 215.231 37.143C214.993 37.381 214.713 37.5 214.391 37.5H213.971ZM234.558 37.5C234.236 37.5 233.956 37.381 233.718 37.143C233.48 36.905 233.361 36.625 233.361 36.303V27.777C233.361 27.455 233.48 27.175 233.718 26.937C233.956 26.699 234.236 26.58 234.558 26.58H235.104C235.426 26.58 235.706 26.699 235.944 26.937C236.182 27.175 236.301 27.455 236.301 27.777V36.303C236.301 36.625 236.182 36.905 235.944 37.143C235.706 37.381 235.426 37.5 235.104 37.5H234.558ZM234.558 24.27C234.236 24.27 233.956 24.151 233.718 23.913C233.48 23.675 233.361 23.395 233.361 23.073V22.947C233.361 22.625 233.48 22.345 233.718 22.107C233.956 21.869 234.236 21.75 234.558 21.75H235.104C235.426 21.75 235.706 21.869 235.944 22.107C236.182 22.345 236.301 22.625 236.301 22.947V23.073C236.301 23.395 236.182 23.675 235.944 23.913C235.706 24.151 235.426 24.27 235.104 24.27H234.558ZM243.754 37.5C243.432 37.5 243.152 37.381 242.914 37.143C242.676 36.905 242.557 36.625 242.557 36.303V27.777C242.557 27.455 242.676 27.175 242.914 26.937C243.152 26.699 243.432 26.58 243.754 26.58H244.027C244.363 26.58 244.643 26.699 244.867 26.937C245.105 27.161 245.231 27.441 245.245 27.777V27.924C245.245 27.938 245.252 27.945 245.266 27.945C245.28 27.945 245.294 27.938 245.308 27.924C246.26 26.888 247.373 26.37 248.647 26.37C249.921 26.37 250.845 26.734 251.419 27.462C252.007 28.176 252.301 29.373 252.301 31.053V36.303C252.301 36.625 252.182 36.905 251.944 37.143C251.706 37.381 251.426 37.5 251.104 37.5H250.747C250.425 37.5 250.145 37.381 249.907 37.143C249.683 36.905 249.571 36.625 249.571 36.303V31.263C249.571 30.213 249.431 29.499 249.151 29.121C248.885 28.729 248.402 28.533 247.702 28.533C247.128 28.533 246.596 28.778 246.106 29.268C245.616 29.758 245.371 30.283 245.371 30.843V36.303C245.371 36.625 245.252 36.905 245.014 37.143C244.776 37.381 244.496 37.5 244.174 37.5H243.754ZM262.269 28.47C260.729 28.47 259.959 29.59 259.959 31.83C259.959 32.992 260.162 33.86 260.568 34.434C260.988 35.008 261.555 35.295 262.269 35.295C262.899 35.295 263.438 35.071 263.886 34.623C264.348 34.175 264.579 33.65 264.579 33.048V30.78C264.579 30.136 264.348 29.59 263.886 29.142C263.438 28.694 262.899 28.47 262.269 28.47ZM261.387 37.395C260.155 37.395 259.147 36.905 258.363 35.925C257.579 34.931 257.187 33.566 257.187 31.83C257.187 30.094 257.558 28.75 258.3 27.798C259.056 26.846 260.085 26.37 261.387 26.37C262.045 26.37 262.626 26.489 263.13 26.727C263.634 26.965 264.131 27.364 264.621 27.924C264.635 27.938 264.649 27.945 264.663 27.945C264.677 27.945 264.684 27.938 264.684 27.924V27.777C264.698 27.441 264.824 27.161 265.062 26.937C265.3 26.699 265.587 26.58 265.923 26.58H266.154C266.476 26.58 266.749 26.699 266.973 26.937C267.211 27.175 267.33 27.455 267.33 27.777V36.66C267.33 40.44 265.44 42.33 261.66 42.33C260.988 42.33 260.281 42.274 259.539 42.162C259.203 42.106 258.923 41.938 258.699 41.658C258.489 41.392 258.384 41.084 258.384 40.734C258.384 40.454 258.496 40.23 258.72 40.062C258.958 39.908 259.217 39.866 259.497 39.936C260.169 40.104 260.869 40.188 261.597 40.188C262.633 40.188 263.389 39.915 263.865 39.369C264.341 38.837 264.579 37.955 264.579 36.723V36.072C264.579 36.058 264.572 36.051 264.558 36.051C264.544 36.051 264.53 36.058 264.516 36.072C263.676 36.954 262.633 37.395 261.387 37.395Z" fill="#4B3232"/>
</g>
<defs>
<filter id="filter0_d_374_3125" x="0" y="0" width="364" height="64" filterUnits="userSpaceOnUse" color-interpolation-filters="sRGB">
<feFlood flood-opacity="0" result="BackgroundImageFix"/>
<feColorMatrix in="SourceAlpha" type="matrix" values="0 0 0 0 0 0 0 0 0 0 0 0 0 0 0 0 0 0 127 0" result="hardAlpha"/>
<feOffset dx="-4" dy="4"/>
<feComposite in2="hardAlpha" operator="out"/>
<feColorMatrix type="matrix" values="0 0 0 0 0.113725 0 0 0 0 0.113725 0 0 0 0 0.113725 0 0 0 0.97 0"/>
<feBlend mode="normal" in2="BackgroundImageFix" result="effect1_dropShadow_374_3125"/>
<feBlend mode="normal" in="SourceGraphic" in2="effect1_dropShadow_374_3125" result="shape"/>
</filter>
</defs>
</svg>
