<svg width="370" height="62" viewBox="0 0 370 62" fill="none" xmlns="http://www.w3.org/2000/svg">
<g filter="url(#filter0_d_433_8035)">
<path d="M4 16C4 10.3995 4 7.59921 5.08993 5.46009C6.04867 3.57847 7.57847 2.04867 9.46009 1.08993C11.5992 0 14.3995 0 20 0H350C355.601 0 358.401 0 360.54 1.08993C362.422 2.04867 363.951 3.57847 364.91 5.46009C366 7.59921 366 10.3995 366 16V38C366 43.6005 366 46.4008 364.91 48.5399C363.951 50.4215 362.422 51.9513 360.54 52.9101C358.401 54 355.601 54 350 54H20C14.3995 54 11.5992 54 9.46009 52.9101C7.57847 51.9513 6.04867 50.4215 5.08993 48.5399C4 46.4008 4 43.6005 4 38V16Z" fill="url(#paint0_linear_433_8035)"/>
<path d="M162.7 30.75C160.95 30.3667 159.7 29.8417 158.95 29.175C158.217 28.5083 157.85 27.6417 157.85 26.575C157.85 25.375 158.292 24.4417 159.175 23.775C160.075 23.0917 161.4 22.75 163.15 22.75C164.25 22.75 165.342 22.85 166.425 23.05C166.792 23.1167 167.083 23.3 167.3 23.6C167.533 23.8833 167.65 24.2167 167.65 24.6C167.65 24.9167 167.525 25.175 167.275 25.375C167.025 25.5583 166.742 25.6083 166.425 25.525C165.492 25.2917 164.508 25.175 163.475 25.175C161.975 25.175 161.225 25.5917 161.225 26.425C161.225 26.825 161.367 27.1583 161.65 27.425C161.933 27.6917 162.417 27.9 163.1 28.05C165.017 28.4333 166.325 28.95 167.025 29.6C167.742 30.25 168.1 31.2 168.1 32.45C168.1 33.65 167.65 34.5833 166.75 35.25C165.85 35.9167 164.542 36.25 162.825 36.25C161.708 36.25 160.567 36.1167 159.4 35.85C159.033 35.7667 158.733 35.575 158.5 35.275C158.267 34.9583 158.15 34.6 158.15 34.2C158.15 33.8833 158.275 33.6417 158.525 33.475C158.792 33.3083 159.075 33.2667 159.375 33.35C160.458 33.65 161.483 33.8 162.45 33.8C163.967 33.8 164.725 33.35 164.725 32.45C164.725 32.0167 164.575 31.675 164.275 31.425C163.992 31.175 163.467 30.95 162.7 30.75ZM176.464 25.075C175.614 25.075 174.956 25.3167 174.489 25.8C174.039 26.2667 173.756 27.025 173.639 28.075C173.639 28.2083 173.706 28.275 173.839 28.275H178.739C178.873 28.275 178.939 28.2083 178.939 28.075C178.873 26.075 178.048 25.075 176.464 25.075ZM177.089 36.25C174.906 36.25 173.223 35.6833 172.039 34.55C170.873 33.4 170.289 31.7167 170.289 29.5C170.289 27.3 170.814 25.625 171.864 24.475C172.914 23.325 174.431 22.75 176.414 22.75C180.114 22.75 182.014 24.85 182.114 29.05C182.131 29.45 181.989 29.7833 181.689 30.05C181.389 30.3167 181.039 30.45 180.639 30.45H173.814C173.664 30.45 173.606 30.525 173.639 30.675C173.756 31.7917 174.123 32.6083 174.739 33.125C175.373 33.625 176.289 33.875 177.489 33.875C178.239 33.875 179.073 33.75 179.989 33.5C180.289 33.4167 180.564 33.4667 180.814 33.65C181.081 33.8333 181.214 34.0833 181.214 34.4C181.214 34.7833 181.098 35.125 180.864 35.425C180.648 35.7083 180.356 35.8833 179.989 35.95C179.056 36.15 178.089 36.25 177.089 36.25ZM186.237 36C185.854 36 185.52 35.8583 185.237 35.575C184.954 35.2917 184.812 34.9583 184.812 34.575V24.425C184.812 24.0417 184.954 23.7083 185.237 23.425C185.52 23.1417 185.854 23 186.237 23H186.562C186.962 23 187.295 23.1417 187.562 23.425C187.845 23.6917 187.995 24.025 188.012 24.425V24.6C188.012 24.6167 188.02 24.625 188.037 24.625C188.054 24.625 188.07 24.6167 188.087 24.6C189.22 23.3667 190.545 22.75 192.062 22.75C193.579 22.75 194.679 23.1833 195.362 24.05C196.062 24.9 196.412 26.325 196.412 28.325V34.575C196.412 34.9583 196.27 35.2917 195.987 35.575C195.704 35.8583 195.37 36 194.987 36H194.562C194.179 36 193.845 35.8583 193.562 35.575C193.295 35.2917 193.162 34.9583 193.162 34.575V28.575C193.162 27.325 192.995 26.475 192.662 26.025C192.345 25.5583 191.77 25.325 190.937 25.325C190.254 25.325 189.62 25.6167 189.037 26.2C188.454 26.7833 188.162 27.4083 188.162 28.075V34.575C188.162 34.9583 188.02 35.2917 187.737 35.575C187.454 35.8583 187.12 36 186.737 36H186.237ZM205.154 25.25C203.237 25.25 202.279 26.6667 202.279 29.5C202.279 30.9167 202.537 31.9833 203.054 32.7C203.571 33.4 204.271 33.75 205.154 33.75C205.937 33.75 206.612 33.4917 207.179 32.975C207.746 32.4583 208.029 31.8667 208.029 31.2V27.8C208.029 27.1333 207.746 26.5417 207.179 26.025C206.612 25.5083 205.937 25.25 205.154 25.25ZM204.154 36.25C202.671 36.25 201.437 35.65 200.454 34.45C199.471 33.2333 198.979 31.5833 198.979 29.5C198.979 27.35 199.446 25.6917 200.379 24.525C201.329 23.3417 202.587 22.75 204.154 22.75C205.571 22.75 206.821 23.2667 207.904 24.3C207.921 24.3167 207.937 24.325 207.954 24.325C207.971 24.325 207.979 24.3167 207.979 24.3V18.675C207.979 18.2917 208.121 17.9583 208.404 17.675C208.687 17.3917 209.021 17.25 209.404 17.25H209.904C210.287 17.25 210.621 17.3917 210.904 17.675C211.187 17.9583 211.329 18.2917 211.329 18.675V34.575C211.329 34.9583 211.187 35.2917 210.904 35.575C210.621 35.8583 210.287 36 209.904 36H209.629C209.229 36 208.887 35.8667 208.604 35.6C208.337 35.3167 208.196 34.975 208.179 34.575L208.154 34.4C208.154 34.3833 208.146 34.375 208.129 34.375C208.112 34.375 208.096 34.3833 208.079 34.4C206.979 35.6333 205.671 36.25 204.154 36.25Z" fill="#232323" fill-opacity="0.78"/>
</g>
<defs>
<filter id="filter0_d_433_8035" x="0" y="0" width="370" height="62" filterUnits="userSpaceOnUse" color-interpolation-filters="sRGB">
<feFlood flood-opacity="0" result="BackgroundImageFix"/>
<feColorMatrix in="SourceAlpha" type="matrix" values="0 0 0 0 0 0 0 0 0 0 0 0 0 0 0 0 0 0 127 0" result="hardAlpha"/>
<feOffset dy="4"/>
<feGaussianBlur stdDeviation="2"/>
<feComposite in2="hardAlpha" operator="out"/>
<feColorMatrix type="matrix" values="0 0 0 0 0 0 0 0 0 0 0 0 0 0 0 0 0 0 0.25 0"/>
<feBlend mode="normal" in2="BackgroundImageFix" result="effect1_dropShadow_433_8035"/>
<feBlend mode="normal" in="SourceGraphic" in2="effect1_dropShadow_433_8035" result="shape"/>
</filter>
<linearGradient id="paint0_linear_433_8035" x1="4" y1="27" x2="1567.5" y2="33.5" gradientUnits="userSpaceOnUse">
<stop stop-color="#F4D4EF"/>
<stop offset="1" stop-color="#8E7B8B"/>
</linearGradient>
</defs>
</svg>
