<svg width="370" height="62" viewBox="0 0 370 62" fill="none" xmlns="http://www.w3.org/2000/svg">
<g filter="url(#filter0_d_433_8048)">
<rect x="4" width="362" height="54" rx="10" fill="#F7F7F7" fill-opacity="0.86" shape-rendering="crispEdges"/>
<path d="M138.3 36.25C136.233 36.25 134.642 35.6833 133.525 34.55C132.408 33.4 131.85 31.7167 131.85 29.5C131.85 27.3167 132.383 25.65 133.45 24.5C134.533 23.3333 136.067 22.75 138.05 22.75C138.933 22.75 139.783 22.8083 140.6 22.925C140.983 22.975 141.3 23.15 141.55 23.45C141.8 23.75 141.925 24.1 141.925 24.5C141.925 24.8333 141.792 25.1 141.525 25.3C141.275 25.5 140.983 25.5667 140.65 25.5C140 25.3667 139.275 25.3 138.475 25.3C137.425 25.3 136.642 25.6333 136.125 26.3C135.608 26.9667 135.35 28.0333 135.35 29.5C135.35 31 135.625 32.075 136.175 32.725C136.725 33.375 137.575 33.7 138.725 33.7C139.542 33.7 140.25 33.625 140.85 33.475C141.167 33.3917 141.45 33.45 141.7 33.65C141.967 33.85 142.1 34.1083 142.1 34.425C142.1 34.825 141.975 35.175 141.725 35.475C141.492 35.775 141.183 35.9583 140.8 36.025C139.95 36.175 139.117 36.25 138.3 36.25ZM153.07 26.225C152.587 25.525 151.854 25.175 150.87 25.175C149.887 25.175 149.145 25.525 148.645 26.225C148.162 26.9083 147.92 28 147.92 29.5C147.92 31 148.162 32.1 148.645 32.8C149.145 33.4833 149.887 33.825 150.87 33.825C151.854 33.825 152.587 33.4833 153.07 32.8C153.57 32.1 153.82 31 153.82 29.5C153.82 28 153.57 26.9083 153.07 26.225ZM155.52 34.5C154.42 35.6667 152.87 36.25 150.87 36.25C148.87 36.25 147.312 35.6667 146.195 34.5C145.095 33.3167 144.545 31.65 144.545 29.5C144.545 27.35 145.095 25.6917 146.195 24.525C147.312 23.3417 148.87 22.75 150.87 22.75C152.87 22.75 154.42 23.3417 155.52 24.525C156.637 25.6917 157.195 27.35 157.195 29.5C157.195 31.65 156.637 33.3167 155.52 34.5ZM163.076 27.8V31.2C163.076 31.8667 163.359 32.4583 163.926 32.975C164.509 33.4917 165.184 33.75 165.951 33.75C166.834 33.75 167.534 33.3917 168.051 32.675C168.567 31.9583 168.826 30.9 168.826 29.5C168.826 26.6667 167.867 25.25 165.951 25.25C165.184 25.25 164.509 25.5083 163.926 26.025C163.359 26.5417 163.076 27.1333 163.076 27.8ZM161.201 41.5C160.817 41.5 160.484 41.3583 160.201 41.075C159.917 40.7917 159.776 40.4583 159.776 40.075V24.425C159.776 24.0417 159.917 23.7083 160.201 23.425C160.484 23.1417 160.817 23 161.201 23H161.501C161.901 23 162.242 23.1417 162.526 23.425C162.809 23.6917 162.959 24.025 162.976 24.425V24.6C162.976 24.6167 162.984 24.625 163.001 24.625C163.017 24.625 163.034 24.6167 163.051 24.6C163.651 23.9333 164.251 23.4583 164.851 23.175C165.451 22.8917 166.151 22.75 166.951 22.75C168.517 22.75 169.767 23.3417 170.701 24.525C171.634 25.6917 172.101 27.35 172.101 29.5C172.101 31.5833 171.609 33.2333 170.626 34.45C169.659 35.65 168.434 36.25 166.951 36.25C165.501 36.25 164.242 35.725 163.176 34.675C163.159 34.6583 163.142 34.65 163.126 34.65C163.109 34.65 163.101 34.6583 163.101 34.675V40.075C163.101 40.4583 162.959 40.7917 162.676 41.075C162.409 41.3583 162.084 41.5 161.701 41.5H161.201ZM177.506 35.8L173.356 24.325C173.256 23.9917 173.297 23.6917 173.481 23.425C173.664 23.1417 173.931 23 174.281 23H175.031C175.447 23 175.831 23.1333 176.181 23.4C176.531 23.65 176.756 23.975 176.856 24.375L179.181 32.55C179.181 32.5667 179.189 32.575 179.206 32.575C179.222 32.575 179.231 32.5667 179.231 32.55L181.906 24.35C182.039 23.95 182.281 23.625 182.631 23.375C182.981 23.125 183.364 23 183.781 23H184.381C184.731 23 184.997 23.1417 185.181 23.425C185.381 23.7083 185.414 24.0083 185.281 24.325L179.181 40.175C179.031 40.575 178.781 40.8917 178.431 41.125C178.081 41.375 177.689 41.5 177.256 41.5H176.656C176.322 41.5 176.056 41.3583 175.856 41.075C175.672 40.8083 175.647 40.5167 175.781 40.2L177.506 36.2C177.539 36.1333 177.556 36.0667 177.556 36C177.556 35.9333 177.539 35.8667 177.506 35.8ZM196.936 36C196.553 36 196.219 35.8583 195.936 35.575C195.653 35.2917 195.511 34.9583 195.511 34.575V18.675C195.511 18.2917 195.653 17.9583 195.936 17.675C196.219 17.3917 196.553 17.25 196.936 17.25H197.586C197.969 17.25 198.303 17.3917 198.586 17.675C198.869 17.9583 199.011 18.2917 199.011 18.675V34.575C199.011 34.9583 198.869 35.2917 198.586 35.575C198.303 35.8583 197.969 36 197.586 36H196.936ZM204.895 36C204.512 36 204.178 35.8583 203.895 35.575C203.612 35.2917 203.47 34.9583 203.47 34.575V24.425C203.47 24.0417 203.612 23.7083 203.895 23.425C204.178 23.1417 204.512 23 204.895 23H205.545C205.928 23 206.262 23.1417 206.545 23.425C206.828 23.7083 206.97 24.0417 206.97 24.425V34.575C206.97 34.9583 206.828 35.2917 206.545 35.575C206.262 35.8583 205.928 36 205.545 36H204.895ZM204.895 20.25C204.512 20.25 204.178 20.1083 203.895 19.825C203.612 19.5417 203.47 19.2083 203.47 18.825V18.675C203.47 18.2917 203.612 17.9583 203.895 17.675C204.178 17.3917 204.512 17.25 204.895 17.25H205.545C205.928 17.25 206.262 17.3917 206.545 17.675C206.828 17.9583 206.97 18.2917 206.97 18.675V18.825C206.97 19.2083 206.828 19.5417 206.545 19.825C206.262 20.1083 205.928 20.25 205.545 20.25H204.895ZM212.592 36C212.209 36 211.876 35.8583 211.592 35.575C211.309 35.2917 211.167 34.9583 211.167 34.575V24.425C211.167 24.0417 211.309 23.7083 211.592 23.425C211.876 23.1417 212.209 23 212.592 23H212.917C213.317 23 213.651 23.1417 213.917 23.425C214.201 23.6917 214.351 24.025 214.367 24.425V24.6C214.367 24.6167 214.376 24.625 214.392 24.625C214.409 24.625 214.426 24.6167 214.442 24.6C215.576 23.3667 216.901 22.75 218.417 22.75C219.934 22.75 221.034 23.1833 221.717 24.05C222.417 24.9 222.767 26.325 222.767 28.325V34.575C222.767 34.9583 222.626 35.2917 222.342 35.575C222.059 35.8583 221.726 36 221.342 36H220.917C220.534 36 220.201 35.8583 219.917 35.575C219.651 35.2917 219.517 34.9583 219.517 34.575V28.575C219.517 27.325 219.351 26.475 219.017 26.025C218.701 25.5583 218.126 25.325 217.292 25.325C216.609 25.325 215.976 25.6167 215.392 26.2C214.809 26.7833 214.517 27.4083 214.517 28.075V34.575C214.517 34.9583 214.376 35.2917 214.092 35.575C213.809 35.8583 213.476 36 213.092 36H212.592ZM227.634 36C227.251 36 226.918 35.8583 226.634 35.575C226.351 35.2917 226.209 34.9583 226.209 34.575V18.675C226.209 18.2917 226.351 17.9583 226.634 17.675C226.918 17.3917 227.251 17.25 227.634 17.25H228.134C228.518 17.25 228.851 17.3917 229.134 17.675C229.418 17.9583 229.559 18.2917 229.559 18.675V28.3C229.559 28.3167 229.568 28.325 229.584 28.325H229.609L233.409 24.05C234.026 23.35 234.809 23 235.759 23H236.809C237.076 23 237.259 23.125 237.359 23.375C237.476 23.625 237.443 23.85 237.259 24.05L232.684 29.1C232.601 29.2 232.601 29.3083 232.684 29.425L237.309 34.925C237.493 35.1417 237.518 35.375 237.384 35.625C237.268 35.875 237.076 36 236.809 36H235.759C234.809 36 234.034 35.6333 233.434 34.9L229.609 30.275C229.609 30.2583 229.601 30.25 229.584 30.25C229.568 30.25 229.559 30.2583 229.559 30.275V34.575C229.559 34.9583 229.418 35.2917 229.134 35.575C228.851 35.8583 228.518 36 228.134 36H227.634Z" fill="#232323" fill-opacity="0.78"/>
</g>
<defs>
<filter id="filter0_d_433_8048" x="0" y="0" width="370" height="62" filterUnits="userSpaceOnUse" color-interpolation-filters="sRGB">
<feFlood flood-opacity="0" result="BackgroundImageFix"/>
<feColorMatrix in="SourceAlpha" type="matrix" values="0 0 0 0 0 0 0 0 0 0 0 0 0 0 0 0 0 0 127 0" result="hardAlpha"/>
<feOffset dy="4"/>
<feGaussianBlur stdDeviation="2"/>
<feComposite in2="hardAlpha" operator="out"/>
<feColorMatrix type="matrix" values="0 0 0 0 0 0 0 0 0 0 0 0 0 0 0 0 0 0 0.25 0"/>
<feBlend mode="normal" in2="BackgroundImageFix" result="effect1_dropShadow_433_8048"/>
<feBlend mode="normal" in="SourceGraphic" in2="effect1_dropShadow_433_8048" result="shape"/>
</filter>
</defs>
</svg>
