<svg width="362" height="54" viewBox="0 0 362 54" fill="none" xmlns="http://www.w3.org/2000/svg">
<path d="M149.8 36.25C147.733 36.25 146.142 35.6833 145.025 34.55C143.908 33.4 143.35 31.7167 143.35 29.5C143.35 27.3167 143.883 25.65 144.95 24.5C146.033 23.3333 147.567 22.75 149.55 22.75C150.433 22.75 151.283 22.8083 152.1 22.925C152.483 22.975 152.8 23.15 153.05 23.45C153.3 23.75 153.425 24.1 153.425 24.5C153.425 24.8333 153.292 25.1 153.025 25.3C152.775 25.5 152.483 25.5667 152.15 25.5C151.5 25.3667 150.775 25.3 149.975 25.3C148.925 25.3 148.142 25.6333 147.625 26.3C147.108 26.9667 146.85 28.0333 146.85 29.5C146.85 31 147.125 32.075 147.675 32.725C148.225 33.375 149.075 33.7 150.225 33.7C151.042 33.7 151.75 33.625 152.35 33.475C152.667 33.3917 152.95 33.45 153.2 33.65C153.467 33.85 153.6 34.1083 153.6 34.425C153.6 34.825 153.475 35.175 153.225 35.475C152.992 35.775 152.683 35.9583 152.3 36.025C151.45 36.175 150.617 36.25 149.8 36.25ZM163.045 29.75C160.662 29.75 159.47 30.4833 159.47 31.95C159.47 32.4833 159.62 32.9167 159.92 33.25C160.237 33.5833 160.637 33.75 161.12 33.75C162.07 33.75 162.837 33.4583 163.42 32.875C164.004 32.275 164.295 31.4583 164.295 30.425V29.975C164.295 29.825 164.22 29.75 164.07 29.75H163.045ZM160.22 36.25C159.087 36.25 158.145 35.8833 157.395 35.15C156.662 34.4 156.295 33.4333 156.295 32.25C156.295 30.8 156.845 29.675 157.945 28.875C159.062 28.075 160.762 27.675 163.045 27.675H164.07C164.22 27.675 164.295 27.6 164.295 27.45V27.25C164.295 26.4833 164.112 25.95 163.745 25.65C163.379 25.3333 162.729 25.175 161.795 25.175C160.829 25.175 159.645 25.35 158.245 25.7C157.945 25.7833 157.67 25.7333 157.42 25.55C157.17 25.35 157.045 25.0917 157.045 24.775C157.045 24.3917 157.162 24.05 157.395 23.75C157.629 23.4333 157.929 23.2417 158.295 23.175C159.562 22.8917 160.754 22.75 161.87 22.75C164.004 22.75 165.495 23.1333 166.345 23.9C167.195 24.6667 167.62 26.0083 167.62 27.925V34.575C167.62 34.9583 167.479 35.2917 167.195 35.575C166.929 35.8583 166.604 36 166.22 36H165.945C165.545 36 165.204 35.8667 164.92 35.6C164.637 35.3167 164.487 34.975 164.47 34.575V34.225C164.47 34.2083 164.462 34.2 164.445 34.2C164.412 34.2 164.395 34.2083 164.395 34.225C163.379 35.575 161.987 36.25 160.22 36.25ZM172.359 36C171.976 36 171.642 35.8583 171.359 35.575C171.076 35.2917 170.934 34.9583 170.934 34.575V24.425C170.934 24.0417 171.076 23.7083 171.359 23.425C171.642 23.1417 171.976 23 172.359 23H172.684C173.084 23 173.417 23.1417 173.684 23.425C173.967 23.6917 174.117 24.025 174.134 24.425V24.6C174.134 24.6167 174.142 24.625 174.159 24.625C174.176 24.625 174.192 24.6167 174.209 24.6C175.342 23.3667 176.667 22.75 178.184 22.75C179.701 22.75 180.801 23.1833 181.484 24.05C182.184 24.9 182.534 26.325 182.534 28.325V34.575C182.534 34.9583 182.392 35.2917 182.109 35.575C181.826 35.8583 181.492 36 181.109 36H180.684C180.301 36 179.967 35.8583 179.684 35.575C179.417 35.2917 179.284 34.9583 179.284 34.575V28.575C179.284 27.325 179.117 26.475 178.784 26.025C178.467 25.5583 177.892 25.325 177.059 25.325C176.376 25.325 175.742 25.6167 175.159 26.2C174.576 26.7833 174.284 27.4083 174.284 28.075V34.575C174.284 34.9583 174.142 35.2917 173.859 35.575C173.576 35.8583 173.242 36 172.859 36H172.359ZM191.426 36.25C189.359 36.25 187.768 35.6833 186.651 34.55C185.534 33.4 184.976 31.7167 184.976 29.5C184.976 27.3167 185.509 25.65 186.576 24.5C187.659 23.3333 189.193 22.75 191.176 22.75C192.059 22.75 192.909 22.8083 193.726 22.925C194.109 22.975 194.426 23.15 194.676 23.45C194.926 23.75 195.051 24.1 195.051 24.5C195.051 24.8333 194.918 25.1 194.651 25.3C194.401 25.5 194.109 25.5667 193.776 25.5C193.126 25.3667 192.401 25.3 191.601 25.3C190.551 25.3 189.768 25.6333 189.251 26.3C188.734 26.9667 188.476 28.0333 188.476 29.5C188.476 31 188.751 32.075 189.301 32.725C189.851 33.375 190.701 33.7 191.851 33.7C192.668 33.7 193.376 33.625 193.976 33.475C194.293 33.3917 194.576 33.45 194.826 33.65C195.093 33.85 195.226 34.1083 195.226 34.425C195.226 34.825 195.101 35.175 194.851 35.475C194.618 35.775 194.309 35.9583 193.926 36.025C193.076 36.175 192.243 36.25 191.426 36.25ZM203.846 25.075C202.996 25.075 202.338 25.3167 201.871 25.8C201.421 26.2667 201.138 27.025 201.021 28.075C201.021 28.2083 201.088 28.275 201.221 28.275H206.121C206.255 28.275 206.321 28.2083 206.321 28.075C206.255 26.075 205.43 25.075 203.846 25.075ZM204.471 36.25C202.288 36.25 200.605 35.6833 199.421 34.55C198.255 33.4 197.671 31.7167 197.671 29.5C197.671 27.3 198.196 25.625 199.246 24.475C200.296 23.325 201.813 22.75 203.796 22.75C207.496 22.75 209.396 24.85 209.496 29.05C209.513 29.45 209.371 29.7833 209.071 30.05C208.771 30.3167 208.421 30.45 208.021 30.45H201.196C201.046 30.45 200.988 30.525 201.021 30.675C201.138 31.7917 201.505 32.6083 202.121 33.125C202.755 33.625 203.671 33.875 204.871 33.875C205.621 33.875 206.455 33.75 207.371 33.5C207.671 33.4167 207.946 33.4667 208.196 33.65C208.463 33.8333 208.596 34.0833 208.596 34.4C208.596 34.7833 208.48 35.125 208.246 35.425C208.03 35.7083 207.738 35.8833 207.371 35.95C206.438 36.15 205.471 36.25 204.471 36.25ZM214.369 36C213.985 36 213.652 35.8583 213.369 35.575C213.085 35.2917 212.944 34.9583 212.944 34.575V18.675C212.944 18.2917 213.085 17.9583 213.369 17.675C213.652 17.3917 213.985 17.25 214.369 17.25H215.019C215.402 17.25 215.735 17.3917 216.019 17.675C216.302 17.9583 216.444 18.2917 216.444 18.675V34.575C216.444 34.9583 216.302 35.2917 216.019 35.575C215.735 35.8583 215.402 36 215.019 36H214.369Z" fill="#FF3C3C"/>
</svg>
