<svg width="38" height="65" viewBox="0 0 38 65" fill="none" xmlns="http://www.w3.org/2000/svg">
<g clip-path="url(#clip0_396_9195)">
<path d="M15.666 3.32498L28.466 5.32498L18.966 25.125L32.866 24.225L3.966 62.625L14.666 33.625L0.966003 33.925L15.666 3.32498Z" fill="black"/>
<path d="M3.96599 63.625C3.76599 63.625 3.66599 63.625 3.46599 63.525C3.06599 63.325 2.86599 62.825 3.06599 62.325L13.366 34.625L0.965991 34.925C0.665991 34.925 0.365991 34.725 0.165991 34.525C-0.0340094 34.225 -0.0340094 33.925 0.0659906 33.625L14.866 3.025C15.066 2.625 15.466 2.425 15.866 2.525L28.666 4.525C28.966 4.525 29.266 4.725 29.366 5.025C29.466 5.325 29.466 5.62499 29.366 5.92499L20.566 24.225L32.766 23.425C33.166 23.425 33.466 23.625 33.666 23.925C33.866 24.225 33.766 24.625 33.566 24.925L4.66599 63.325C4.56599 63.425 4.26599 63.625 3.96599 63.625ZM14.666 32.625C14.966 32.625 15.266 32.725 15.466 33.025C15.666 33.325 15.666 33.625 15.566 33.925L7.06599 56.825L30.766 25.325L18.966 26.025C18.666 26.025 18.266 25.925 18.066 25.625C17.866 25.325 17.866 25.025 17.966 24.725L26.966 6.125L16.066 4.42499L2.26599 32.925L14.666 32.625Z" fill="black"/>
<path d="M19.466 0.824982L32.366 2.82498L22.766 22.525L36.666 21.725L3.36597 63.825L18.566 31.025L4.76597 31.425L19.466 0.824982Z" fill="#F9CC3D"/>
<path d="M21.166 4.62499L31.766 3.32499L23.466 1.42499L21.166 4.62499Z" fill="#FFE088"/>
<path d="M13.866 50.525L23.866 28.825C24.166 28.125 23.666 27.325 22.866 27.325L10.766 27.625L23.466 1.32501L19.466 0.725006L4.66597 31.325L18.466 31.025L3.36597 63.825L13.866 50.525Z" fill="#FFE088"/>
<path d="M3.36597 64.825C3.16597 64.825 3.06597 64.825 2.86597 64.725C2.46597 64.425 2.26597 63.925 2.46597 63.525L16.966 32.125L4.76597 32.425C4.46597 32.425 4.16597 32.225 3.96597 32.025C3.76597 31.725 3.76597 31.425 3.86597 31.125L18.666 0.524995C18.866 0.124995 19.266 -0.0750049 19.666 0.0249951L32.466 2.025C32.766 2.025 33.066 2.225 33.166 2.525C33.266 2.825 33.266 3.125 33.166 3.425L24.366 21.725L36.566 20.925C36.966 20.925 37.266 21.125 37.466 21.425C37.666 21.725 37.566 22.125 37.366 22.425L4.06597 64.625C3.96597 64.725 3.66597 64.825 3.36597 64.825ZM18.566 30.125C18.866 30.125 19.166 30.325 19.366 30.525C19.566 30.825 19.566 31.125 19.466 31.425L7.66597 56.925L34.566 22.725L22.866 23.425C22.566 23.425 22.166 23.325 21.966 23.025C21.766 22.725 21.766 22.425 21.866 22.125L30.866 3.525L19.966 1.825L6.16597 30.325L18.566 30.125C18.4993 30.125 18.4993 30.125 18.566 30.125Z" fill="black"/>
</g>
<defs>
<clipPath id="clip0_396_9195">
<rect width="37.575" height="64.825" fill="white"/>
</clipPath>
</defs>
</svg>
