<svg width="290" height="279" viewBox="0 0 290 279" fill="none" xmlns="http://www.w3.org/2000/svg">
<path d="M258 0H32C14.3269 0 0 14.3269 0 32V247C0 264.673 14.3269 279 32 279H258C275.673 279 290 264.673 290 247V32C290 14.3269 275.673 0 258 0Z" fill="black"/>
<g clip-path="url(#clip0_462_3721)">
<path d="M112.613 199.661C134.767 199.661 152.727 177.571 152.727 150.322C152.727 123.072 134.767 100.982 112.613 100.982C90.4594 100.982 72.5 123.072 72.5 150.322C72.5 177.571 90.4594 199.661 112.613 199.661Z" fill="#FEFEFE"/>
<path d="M185.12 190.153C203.007 190.153 217.507 172.317 217.507 150.315C217.507 128.314 203.007 110.478 185.12 110.478C167.233 110.478 152.733 128.314 152.733 150.315C152.733 172.317 167.233 190.153 185.12 190.153Z" fill="#FEFEFE"/>
<path d="M112.612 202C89.115 202 70 178.818 70 150.32C70 121.824 89.115 98.64 112.612 98.64C136.108 98.64 155.223 121.824 155.223 150.32C155.225 178.818 136.11 202 112.612 202ZM112.612 103.319C91.8733 103.319 75 124.404 75 150.32C75 176.237 91.8733 197.323 112.612 197.323C133.35 197.323 150.223 176.239 150.223 150.32C150.225 124.404 133.352 103.319 112.612 103.319Z" fill="black"/>
<path d="M185.112 192.497C165.875 192.497 150.223 173.576 150.223 150.32C150.223 127.063 165.875 108.143 185.112 108.143C204.348 108.143 220 127.064 220 150.32C220 173.576 204.348 192.497 185.112 192.497ZM185.112 112.821C168.632 112.821 155.223 129.643 155.223 150.32C155.223 170.997 168.632 187.819 185.112 187.819C201.592 187.819 215 170.997 215 150.32C215 129.643 201.592 112.821 185.112 112.821ZM129.715 89.5404C126.817 87.1267 122.962 85.2198 118.767 84.0863C114.577 82.92 110.048 82.4054 105.577 82.6908C101.11 82.8997 96.755 84.3108 92.5616 86.3362C88.4283 88.3694 84.3966 90.8704 81.45 94.4394C83.7283 90.4401 87.3816 87.2 91.2783 84.4277C93.25 83.0432 95.335 81.7849 97.585 80.7059C99.8333 79.6067 102.297 78.7725 104.778 78.1909C109.763 77.0215 114.965 76.7221 120.178 77.2538C125.387 77.7746 130.67 79.1966 135.597 81.9735L135.648 82.0032C138.025 83.3425 138.79 86.2317 137.358 88.4552C135.927 90.6786 132.838 91.3943 130.462 90.0549C130.2 89.9068 129.937 89.7228 129.715 89.5404ZM156.835 94.1868C161.762 91.4099 167.045 89.9879 172.253 89.4671C177.467 88.9354 182.667 89.2348 187.653 90.4042C190.133 90.9858 192.597 91.82 194.847 92.9192C197.095 93.9982 199.182 95.2565 201.153 96.641C205.05 99.4133 208.703 102.653 210.982 106.653C208.035 103.085 204.005 100.583 199.87 98.5495C195.677 96.5241 191.322 95.113 186.855 94.9041C182.383 94.6187 177.857 95.1333 173.665 96.2996C169.47 97.4331 165.617 99.34 162.717 101.754C160.643 103.48 157.468 103.307 155.623 101.367C153.778 99.4274 153.963 96.4571 156.037 94.731C156.265 94.5408 156.507 94.374 156.76 94.2289L156.835 94.1868ZM98.3883 136.055C96.19 139.761 94.8683 144.375 94.8683 149.397C94.8683 161.567 102.538 171.432 111.998 171.432C121.458 171.432 129.128 161.567 129.128 149.397C129.128 142.541 126.693 136.418 122.877 132.377L98.3883 136.055Z" fill="black"/>
<path d="M105.023 135.059C104.968 135.514 104.932 135.977 104.932 136.452C104.932 141.473 108.095 145.543 111.998 145.543C115.902 145.543 119.065 141.473 119.065 136.452C119.065 135.239 118.877 134.086 118.542 133.028L105.023 135.059Z" fill="white"/>
<path d="M178.005 134.259C173.923 137.266 171.167 142.912 171.167 149.397C171.167 159.033 177.238 166.843 184.73 166.843C192.222 166.843 198.293 159.031 198.293 149.397C198.293 145.666 197.375 142.217 195.825 139.381L178.005 134.259Z" fill="black"/>
<path d="M180.233 134.899C179.55 136.092 179.133 137.553 179.133 139.148C179.133 143.123 181.638 146.346 184.728 146.346C187.818 146.346 190.323 143.123 190.323 139.148C190.323 138.676 190.283 138.216 190.215 137.768L180.233 134.899Z" fill="white"/>
<path d="M148.206 126.208L73.0181 137.499L73.8105 142.117L148.998 130.826L148.206 126.208Z" fill="black"/>
<path d="M158.745 126.284L157.277 130.755L216.526 147.787L217.995 143.315L158.745 126.284Z" fill="black"/>
</g>
<defs>
<clipPath id="clip0_462_3721">
<rect width="150" height="125" fill="white" transform="translate(70 77)"/>
</clipPath>
</defs>
</svg>
